<svg xmlns="http://www.w3.org/2000/svg" viewBox="0 0 2000 2400"><defs><style>.cls-1{fill:#fff3e3;}.cls-2{opacity:0.4;}.cls-3{fill:#725b44;}</style></defs><title>background</title><g id="Warstwa_1" data-name="Warstwa 1"><rect class="cls-1" width="2000" height="2400"/></g><g id="MAZIE"><g class="cls-2"><path class="cls-3" d="M20.73,1374.56c-40-14.71-83.31-11.35-123.86-23.33a549.53,549.53,0,0,1-112.74-48.12c-66.73-37.7-117.23-108.3-116.72-186.37.49-73.27,36.41-139.91,87.6-190.63,48.06-47.62,107.91-81.42,155.3-130,45.85-47,76.16-105.92,74.81-172.81-1.24-61.37-31.39-116.1-76-157-23.14-21.25-49.44-39-77.08-53.85-29.93-16.08-61.8-26.68-92.72-40.49-69.54-31-135.43-78.17-183.7-137.42C-487.13,181.94-521,120.65-584.62,90.4c-63.1-30-141.53-40.16-208.1-15.53-33,12.2-58,35.92-85.84,56.34-14.33,10.49-29.64,20-46.71,25.28-19,5.89-35.48,3.07-54.28-1.58-28.13-7-56.18-7.14-82.47,6.21-23.59,12-42.09,32-58.64,52.17-17.63,21.5-33.55,44.69-53.57,64.1-22.62,21.93-52,34-82.18,41.59a334.91,334.91,0,0,1-99.22,9.6c-39.2-2.13-76-15.48-113-27.45-41.7-13.48-85-22.12-127.71-31.79-41.79-9.46-84.21-17.81-127.16-19.21-64.94-2.12-128.66,16.58-183,52-104.94,68.44-174.87,192.37-181.75,317.23-3.4,61.68,7.23,128.46,40.07,181.67,35.28,57.16,97.31,85.32,162.52,91.66s136-4.54,195.41-32.84c56.67-27,113-71.41,136.47-131.42,23.25-59.4-15.73-113.66-70.58-136.28-60-24.75-125.4-1.95-164.38,48.49-38.68,50.06-36.76,114.71.15,165.13,33.41,45.62,88.11,74.94,144,81,68.22,7.36,138.32-27.82,195.38-61.45,33.71-19.86,65.83-42.3,97.47-65.27,30.81-22.38,62.42-44.17,92-68.2,60.75-49.39,111.87-111.32,179.56-151.89,66.94-40.11,146-57.76,223.14-63.61,65.3-4.95,131.84-7.25,196.69,3.58,64,10.7,127.85,35.69,168.35,88.75,22,28.85,39.14,62,52.47,95.65,12.34,31.14,21.62,63.52,20.57,97.3-2.32,75.06-42.12,148.72-89.72,204.95-46,54.35-107.65,90.53-175.4,111.16a473.06,473.06,0,0,1-105.16,19.45c-34.45,2.37-72.08,2.78-105.54-6.77-48-13.69-86.45-52.27-86.07-103.85.32-42.06,21.89-83,49.88-113.4,24-26,60.24-52.56,97.81-47.52,61.34,8.23,68.1,86.91,59,134.76-15.07,78.83-59,151.12-97,220.68-40.2,73.67-77.34,147.49-91,231.17a590.72,590.72,0,0,0-6.66,124.62c2.06,41.13,6.43,83.62,22.21,122,26.31,64,75.78,122,130.44,163.74,22.42,17.12,48,33.38,75.56,40.68,30.51,8.08,62.51,10.31,94,9.5,69.9-1.81,140.18-17.78,205.22-43.12C-319.1,1782-211.29,1682.48-183.76,1550c12.45-60,7.45-124.81-23.42-178.66-30.57-53.31-82.33-83.1-143.13-86.87-51.87-3.21-102.1,10.82-142.07,44.57-38.59,32.59-64.54,77.79-86.44,122.6-23.3,47.67-42.35,97.38-67.24,144.28-19.39,36.5-43,70.88-69,103-25,30.78-51.86,60.73-85.83,81.75-63.25,39.15-140,47.26-212.85,42.52-34.2-2.22-64.74-12.72-92.38-33.17-26.39-19.52-48-44.9-68.56-70.25-20-24.7-38.54-52.69-63.81-72.38-24.38-19-53.78-29.38-84.33-32.75-68.79-7.59-135.58,17.71-194.4,51-63.37,35.82-126.79,74.61-202.43,58.27-31.41-6.79-62-21-85.51-43.11-26.66-25.1-39.55-59.72-45.31-95.27-12.4-76.52,6.48-155.41,16.9-231.09,9.15-66.49,20.31-135.49,51.44-195.74,29.55-57.19,95-121.5,165.5-98.39,35,11.48,58.92,43.88,75.45,75.24,16.86,32,26.68,67.69,30.2,103.62,7.06,72.24-12.25,139.61-47.65,202.15-17.25,30.47-38.32,58.79-64.63,82-30.75,27.18-68.09,44.92-105,62-65.39,30.27-132.1,60.41-193.64,98.13-26.76,16.4-53.44,35-74.17,58.79-23.58,27.1-40.34,61.09-54.81,93.7-54.13,122-79.7,267.38-22.8,393.23,27,59.79,74.65,114.48,136.25,139.72,65.39,26.79,139.07,17.65,204.28-4.8,36.59-12.6,71.12-29.81,104.84-48.68,18.85-10.56,37.52-21.45,56.51-31.75,17.8-9.66,36.3-17.92,53-29.47,29.85-20.64,54.55-47.45,82.22-70.71,31.27-26.27,64.16-50.75,95.63-76.85,52.76-43.76,109.07-87.69,172.29-115.59,21.56-9.51,54.7-21.39,73.86-1.06,13,13.8,15.64,36.79,16.73,54.75,1.23,20.4-.31,40.83,0,61.24.42,26.07,3.26,58.57,23.11,78,14,13.67,33.47,15.26,51.82,11.59,51.34-10.26,92.16-48.71,141.8-64,39.15-12.06,80-1,103.94,33.2,16.73,24,22.51,53.54,29.67,81.36,7.84,30.49,18.66,57.9,36.12,84.28,21,31.77,47.22,59.89,76,84.71,117.92,101.62,270.84,155.73,419.23,194.72,6.23,1.63,8.88-8,2.66-9.65-80-21-159.15-46.08-234.43-80.51-73.5-33.62-145.52-76-203.53-132.88-27.33-26.8-52.45-57.61-69.26-92.21-12.93-26.61-17.74-56.18-25.86-84.41-7.26-25.27-17.68-50.48-37.68-68.4-26.6-23.85-61.07-30.6-95.2-21.13-50.74,14.08-91.46,52.53-142.74,64.54-77.42,18.14-63.87-87.48-65.42-133.92-.88-26.15-4.61-62.19-30.33-76.41-20.3-11.22-45.87-4.38-66,3.56-24.2,9.54-46.42,23.13-68.62,36.51-32.77,19.74-63.37,42.33-93.06,66.41-33,26.71-65,54.58-98.84,80.11-29.18,22-54.16,48.65-82.51,71.58-31.89,25.79-70.51,42.19-106,62.36-36.13,20.53-72.46,40.58-111.51,55.11-68.38,25.44-147.38,37.46-216,6.21-64-29.14-110.58-91-133.8-156-22.91-64.21-26.16-134.6-15.79-201.64a611.07,611.07,0,0,1,75-211.12c17.74-30.37,39.07-54.61,67.56-75.3,27.74-20.15,57.93-36.75,88.36-52.45,31-16,62.2-31.95,93.82-46.71,38-17.73,77.32-33.7,113-55.91,58.66-36.51,97.12-93.94,125.06-155.89a321.84,321.84,0,0,0,22.07-193.41c-11.46-58.68-43.7-132.87-103.66-155.9-60.5-23.24-123.95,18.26-159.33,65.41-39.91,53.2-56.41,121.15-67.41,185.57-5.6,32.83-9.53,65.92-14.53,98.85-5.65,37.16-11.52,74.4-13.26,112-3.11,66.81,7.63,141.16,64.06,184.32,47.32,36.19,112.26,48.65,169.55,32.69,71.73-20,128.84-72.4,199.94-94.19,64.65-19.8,142.61-22.74,195.23,26.58,23.33,21.86,41.58,49.56,62,74.08,19.6,23.53,40.63,46.24,65.8,63.93,54.59,38.37,126.72,37.54,190.42,28.9,34.21-4.63,67.79-13.76,98.83-29,32.57-16,59.67-38.74,84-65.41,48-52.57,86.89-112,116.78-176.46,22.42-48.39,42.07-98.28,68.89-144.51,25-43,57.47-83.77,103.71-105,53.39-24.47,125.45-23,175.32,9,53.6,34.37,79.51,99.47,81.72,161.15,5.09,141.81-98.1,265.68-220.79,324.35-63.6,30.42-134.27,49.54-204.4,56.2-34,3.24-68.79,3.59-102.56-2.13-29.66-5-55.67-16.51-80.55-33.39-60-40.7-115.08-103.43-142.25-171.14-16.23-40.46-20-85.54-21.42-128.73-1.39-43.74,1.75-87.66,10.47-130.57,17.08-84,58.7-158,99.32-232.46,36-66,76.62-136.73,87.13-212.37,6.58-47.38-2.92-110.51-53.69-130.15-32.68-12.64-68.59,2.2-95,22-58.54,43.78-109,138.66-61.25,207.18,34.19,49.1,95.83,59.33,151.61,59.36,68.31,0,137.37-14.84,199.25-43.87,61.23-28.73,110.48-72.6,148.41-128.37,39.05-57.43,70.8-129.8,63.15-200.75-3.33-30.88-14.1-60.8-26.43-89.12-13.46-30.9-29.89-61.14-50.95-87.57-38.94-48.87-98.12-74.35-158.15-86.09-63.08-12.33-128.11-11.67-192-7.53-72.16,4.67-143.29,16.82-209.72,46.61-70.63,31.68-124,87.14-180.13,138.71-29.1,26.73-60.1,50.19-91.89,73.57-31.43,23.11-62.79,46.36-95.33,67.9s-66.1,41.35-101.72,57.09c-33.12,14.64-69.93,28.44-106.57,29-60.18.86-122.65-29.42-158.06-78.32-17.83-24.61-29.09-55.45-26.89-86.12,2.52-35.34,22.93-67.9,49.72-90.24,27.81-23.19,64.35-36.35,100.59-30.2,31.57,5.36,62.53,22.13,82.43,47.49,47.18,60.15-7.06,131.48-55.59,170.51-55.39,44.55-122.74,66.86-193.07,72.19-69.86,5.3-148.72-7.37-197.55-62.3C-2065,771.63-2079.39,700-2078.82,636c1.15-129.75,74-261.6,184.67-329.82,61.18-37.73,130.32-51.3,201.48-43.85,45.18,4.73,89.44,15.65,133.59,26,20.51,4.8,41.29,8.8,61.58,14.49,20.5,5.75,40.56,12.92,60.86,19.32,64,20.17,130.21,22.51,194.91,3.24,27.58-8.21,53.75-20.68,74.57-40.86,19.66-19.07,35.35-41.78,52.61-62.93,17.12-21,36.26-42.28,61.41-53.64a92.78,92.78,0,0,1,44.06-7.9c16.71,1,32.25,7,48.7,9.43,33.24,4.86,64.2-12.61,89.89-31.83,29.32-21.95,55.72-46,91.54-56.82,69.75-21.11,156.71-7.45,216.88,33.87,57.17,39.27,86.88,106,135.15,154.21,53.81,53.75,118.64,96.42,189.78,123.42,60,22.79,118.84,54.61,161.41,103.8C-30.9,547.88-14.09,616.53-32.18,683c-18,66.31-69.28,114.86-121.37,156.27-53.52,42.56-109.3,80.31-146.73,139.11-35,54.9-54,127.19-36.26,191.41,18.14,65.8,71.07,119.65,130.65,150,32.86,16.74,68.75,32.77,104.45,42.3,39.35,10.52,81,7.92,119.52,22.11,6,2.23,8.65-7.43,2.65-9.64Z"/></g><g class="cls-2"><path class="cls-3" d="M2121.61,1374.56c-40-14.71-83.32-11.35-123.87-23.33A549.77,549.77,0,0,1,1885,1303.11c-66.73-37.7-117.23-108.3-116.71-186.37.48-73.27,36.41-139.91,87.59-190.63,48.06-47.62,107.91-81.42,155.3-130,45.86-47,76.16-105.92,74.81-172.81-1.24-61.37-31.38-116.1-75.95-157-23.14-21.25-49.44-39-77.08-53.85-29.93-16.08-61.81-26.68-92.72-40.49-69.54-31-135.44-78.17-183.7-137.42-42.8-52.53-76.67-113.82-140.28-144.07-63.11-30-141.54-40.16-208.11-15.53-33,12.2-58,35.92-85.84,56.34-14.32,10.49-29.64,20-46.71,25.28-19,5.89-35.47,3.07-54.27-1.58-28.13-7-56.19-7.14-82.48,6.21-23.59,12-42.09,32-58.64,52.17-17.63,21.5-33.54,44.69-53.57,64.1-22.61,21.93-52,34-82.18,41.59a334.87,334.87,0,0,1-99.22,9.6c-39.2-2.13-76-15.48-113-27.45-41.7-13.48-85-22.12-127.7-31.79-41.8-9.46-84.21-17.81-127.16-19.21-64.95-2.12-128.66,16.58-183,52C89.4,370.59,19.47,494.52,12.58,619.38c-3.4,61.68,7.24,128.46,40.07,181.67,35.28,57.16,97.31,85.32,162.52,91.66s136-4.54,195.41-32.84c56.67-27,113-71.41,136.47-131.42,23.25-59.4-15.73-113.66-70.58-136.28-60-24.75-125.4-1.95-164.37,48.49-38.68,50.06-36.77,114.71.15,165.13,33.4,45.62,88.1,74.94,144,81,68.22,7.36,138.32-27.82,195.38-61.45,33.71-19.86,65.83-42.3,97.47-65.27,30.82-22.38,62.42-44.17,92-68.2,60.75-49.39,111.87-111.32,179.56-151.89,66.95-40.11,146.06-57.76,223.14-63.61,65.3-4.95,131.84-7.25,196.69,3.58,64,10.7,127.85,35.69,168.35,88.75,22,28.85,39.14,62,52.48,95.65,12.33,31.14,21.61,63.52,20.57,97.3-2.33,75.06-42.12,148.72-89.73,204.95-46,54.35-107.65,90.53-175.4,111.16a473,473,0,0,1-105.15,19.45c-34.46,2.37-72.09,2.78-105.55-6.77-48-13.69-86.45-52.27-86.06-103.85.31-42.06,21.88-83,49.88-113.4,24-26,60.23-52.56,97.8-47.52,61.34,8.23,68.1,86.91,59,134.76-15.07,78.83-59,151.12-97,220.68-40.2,73.67-77.34,147.49-91,231.17a590.72,590.72,0,0,0-6.65,124.62c2,41.13,6.42,83.62,22.2,122,26.32,64,75.78,122,130.45,163.74,22.41,17.12,48,33.38,75.55,40.68,30.51,8.08,62.52,10.31,94,9.5,69.9-1.81,140.19-17.78,205.22-43.12,122.42-47.7,230.22-147.2,257.75-279.72,12.45-60,7.45-124.81-23.42-178.66-30.56-53.31-82.33-83.1-143.13-86.87-51.86-3.21-102.1,10.82-142.07,44.57-38.59,32.59-64.54,77.79-86.44,122.6-23.29,47.67-42.35,97.38-67.24,144.28-19.38,36.5-43,70.88-69,103-25,30.78-51.87,60.73-85.84,81.75-63.25,39.15-140,47.26-212.85,42.52-34.2-2.22-64.73-12.72-92.38-33.17-26.39-19.52-48-44.9-68.56-70.25-20-24.7-38.53-52.69-63.8-72.38-24.38-19-53.79-29.38-84.33-32.75-68.79-7.59-135.59,17.71-194.41,51-63.36,35.82-126.78,74.61-202.42,58.27-31.41-6.79-62-21-85.52-43.11-26.66-25.1-39.55-59.72-45.31-95.27-12.4-76.52,6.48-155.41,16.9-231.09,9.15-66.49,20.31-135.49,51.45-195.74,29.54-57.19,95-121.5,165.49-98.39,35,11.48,58.92,43.88,75.45,75.24,16.86,32,26.69,67.69,30.2,103.62,7.06,72.24-12.24,139.61-47.65,202.15-17.25,30.47-38.31,58.79-64.63,82-30.74,27.18-68.09,44.92-105,62-65.39,30.27-132.1,60.41-193.64,98.13-26.76,16.4-53.43,35-74.17,58.79-23.58,27.1-40.34,61.09-54.81,93.7-54.13,122-79.7,267.38-22.79,393.23,27,59.79,74.64,114.48,136.24,139.72,65.39,26.79,139.07,17.65,204.28-4.8,36.59-12.6,71.12-29.81,104.84-48.68,18.85-10.56,37.52-21.45,56.51-31.75,17.8-9.66,36.31-17.92,53-29.47,29.84-20.64,54.54-47.45,82.22-70.71,31.26-26.27,64.15-50.75,95.62-76.85,52.76-43.76,109.07-87.69,172.29-115.59,21.56-9.51,54.71-21.39,73.87-1.06,13,13.8,15.63,36.79,16.72,54.75,1.23,20.4-.31,40.83,0,61.24.42,26.07,3.26,58.57,23.11,78,14,13.67,33.47,15.26,51.82,11.59,51.34-10.26,92.16-48.71,141.8-64,39.15-12.06,80-1,103.94,33.2,16.73,24,22.51,53.54,29.67,81.36,7.84,30.49,18.67,57.9,36.12,84.28,21,31.77,47.22,59.89,76,84.71,117.92,101.62,270.84,155.73,419.23,194.72,6.23,1.63,8.89-8,2.66-9.65-80-21-159.15-46.08-234.42-80.51-73.51-33.62-145.53-76-203.54-132.88-27.33-26.8-52.45-57.61-69.26-92.21-12.93-26.61-17.74-56.18-25.85-84.41-7.27-25.27-17.68-50.48-37.68-68.4-26.6-23.85-61.07-30.6-95.2-21.13-50.75,14.08-91.47,52.53-142.75,64.54-77.42,18.14-63.87-87.48-65.42-133.92-.87-26.15-4.61-62.19-30.33-76.41-20.3-11.22-45.87-4.38-66,3.56-24.19,9.54-46.42,23.13-68.62,36.51-32.77,19.74-63.37,42.33-93.06,66.41-32.94,26.71-65,54.58-98.84,80.11-29.18,22-54.15,48.65-82.51,71.58-31.88,25.79-70.51,42.19-106,62.36-36.14,20.53-72.46,40.58-111.51,55.11-68.39,25.44-147.38,37.46-216,6.21-64-29.14-110.58-91-133.79-156C3.42,2136.38.17,2066,10.54,1999a611.07,611.07,0,0,1,75-211.12c17.74-30.37,39.07-54.61,67.56-75.3,27.74-20.15,57.94-36.75,88.36-52.45,31-16,62.2-31.95,93.82-46.71,38-17.73,77.32-33.7,113-55.91,58.66-36.51,97.12-93.94,125.07-155.89a321.76,321.76,0,0,0,22.06-193.41c-11.46-58.68-43.7-132.87-103.66-155.9-60.5-23.24-123.95,18.26-159.32,65.41-39.91,53.2-56.42,121.15-67.42,185.57-5.6,32.83-9.53,65.92-14.53,98.85-5.64,37.16-11.52,74.4-13.26,112-3.1,66.81,7.63,141.16,64.06,184.32,47.32,36.19,112.27,48.65,169.56,32.69,71.72-20,128.83-72.4,199.93-94.19,64.66-19.8,142.61-22.74,195.23,26.58,23.33,21.86,41.58,49.56,62,74.08,19.59,23.53,40.63,46.24,65.79,63.93,54.59,38.37,126.72,37.54,190.43,28.9,34.2-4.63,67.78-13.76,98.82-29,32.57-16,59.67-38.74,84-65.41,48-52.57,86.89-112,116.78-176.46,22.42-48.39,42.08-98.28,68.9-144.51,25-43,57.46-83.77,103.7-105,53.39-24.47,125.45-23,175.33,9,53.6,34.37,79.5,99.47,81.71,161.15,5.1,141.81-98.1,265.68-220.79,324.35-63.6,30.42-134.26,49.54-204.4,56.2-34,3.24-68.78,3.59-102.56-2.13-29.66-5-55.67-16.51-80.55-33.39-60-40.7-115.08-103.43-142.25-171.14-16.23-40.46-20-85.54-21.41-128.73-1.4-43.74,1.74-87.66,10.46-130.57,17.08-84,58.7-158,99.32-232.46,36-66,76.62-136.73,87.13-212.37,6.58-47.38-2.91-110.51-53.69-130.15-32.68-12.64-68.59,2.2-95,22-58.54,43.78-109,138.66-61.25,207.18,34.19,49.1,95.83,59.33,151.61,59.36,68.32,0,137.38-14.84,199.25-43.87,61.23-28.73,110.48-72.6,148.41-128.37,39.06-57.43,70.8-129.8,63.15-200.75-3.33-30.88-14.09-60.8-26.43-89.12-13.46-30.9-29.89-61.14-51-87.57-38.94-48.87-98.12-74.35-158.15-86.09-63.08-12.33-128.11-11.67-192-7.53-72.17,4.67-143.3,16.82-209.72,46.61-70.63,31.68-124,87.14-180.14,138.71-29.1,26.73-60.09,50.19-91.89,73.57C750.2,747,718.84,770.2,686.3,791.74s-66.09,41.35-101.71,57.09c-33.13,14.64-69.94,28.44-106.58,29-60.17.86-122.65-29.42-158.06-78.32-17.83-24.61-29.08-55.45-26.89-86.12,2.52-35.34,22.93-67.9,49.72-90.24,27.81-23.19,64.36-36.35,100.59-30.2C475,598.27,505.9,615,525.8,640.4c47.18,60.15-7.06,131.48-55.59,170.51-55.39,44.55-122.74,66.86-193.07,72.19-69.85,5.3-148.72-7.37-197.55-62.3C35.88,771.63,21.48,700,22.05,636c1.16-129.75,74-261.6,184.67-329.82C267.9,268.41,337,254.84,408.2,262.29c45.18,4.73,89.44,15.65,133.59,26,20.52,4.8,41.29,8.8,61.58,14.49,20.5,5.75,40.56,12.92,60.87,19.32,64,20.17,130.21,22.51,194.9,3.24,27.58-8.21,53.75-20.68,74.57-40.86,19.66-19.07,35.35-41.78,52.61-62.93,17.12-21,36.27-42.28,61.41-53.64a92.78,92.78,0,0,1,44.06-7.9c16.72,1,32.26,7,48.7,9.43,33.24,4.86,64.2-12.61,89.89-31.83,29.33-21.95,55.72-46,91.54-56.82,69.75-21.11,156.72-7.45,216.88,33.87,57.17,39.27,86.88,106,135.15,154.21,53.81,53.75,118.64,96.42,189.78,123.42,60,22.79,118.84,54.61,161.41,103.8,44.83,51.8,61.64,120.45,43.56,186.92-18,66.31-69.29,114.86-121.37,156.27-53.53,42.56-109.3,80.31-146.74,139.11-35,54.9-54,127.19-36.26,191.41,18.14,65.8,71.07,119.65,130.65,150,32.87,16.74,68.75,32.77,104.45,42.3,39.35,10.52,81,7.92,119.52,22.11,6.05,2.23,8.65-7.43,2.66-9.64Z"/></g></g></svg>